<?xml version="1.0" encoding="UTF-8"?>
<svg xmlns="http://www.w3.org/2000/svg" id="Layer_3" data-name="Layer 3" viewBox="0 0 64 64" width="512" height="512"><path d="M58,1H6A5.006,5.006,0,0,0,1,6V46a5.006,5.006,0,0,0,5,5H23.382l-3,6H17a1,1,0,0,0-1,1v4a1,1,0,0,0,1,1H47a1,1,0,0,0,1-1V58a1,1,0,0,0-1-1H43.618l-3-6H58a5.006,5.006,0,0,0,5-5V6A5.006,5.006,0,0,0,58,1ZM46,61H18V59H46Zm-4.618-4H22.618l3-6H38.382ZM61,46a3,3,0,0,1-3,3H6a3,3,0,0,1-3-3V6A3,3,0,0,1,6,3H58a3,3,0,0,1,3,3Z"/><path d="M58,5H6A1,1,0,0,0,5,6V42a1,1,0,0,0,1,1H58a1,1,0,0,0,1-1V6A1,1,0,0,0,58,5ZM19.988,21.934a5.028,5.028,0,0,1,1.028,7.011L19.5,31H14.505l-.812-1.1a8.645,8.645,0,0,1,1.764-12.054L18,15.942v2.014A5,5,0,0,0,19.988,21.934ZM14.78,33h4.44l.5,2H14.281Zm-.721,4h5.882l-.228,4H14.287ZM28.168,20.949h0L32,13.922v4.262a3,3,0,1,0,2,0V13.922l3.833,7.026h0A10.872,10.872,0,0,0,36.051,26h-6.1A10.872,10.872,0,0,0,28.168,20.949ZM34,21a1,1,0,1,1-1-1A1,1,0,0,1,34,21Zm-5,7h8v2H29Zm5.905,4-.818,9H31.913L31.1,32Zm10.7-9h4.78l1.5,3.9L49.955,30.13l-1.123-1.685a1.039,1.039,0,0,0-1.664,0L46.045,30.13,44.108,26.9Zm.769-2L48,16.786,49.621,21ZM47,32.3l1-1.5,1,1.5V41H47Zm4-.026,1-1.667V41H51ZM44,30.61l1,1.667V41H44ZM57,41H54V27a1,1,0,0,0-.066-.359l-5-13a1,1,0,0,0-1.868,0l-5,13A1,1,0,0,0,42,27V41H36.1l.818-9H38a1,1,0,0,0,1-1V27a.992.992,0,0,0-.928-.985A8.875,8.875,0,0,1,39.5,22.059l.336-.5a1,1,0,0,0,.046-1.034l-6-11a1.04,1.04,0,0,0-1.756,0l-6,11a1,1,0,0,0,.046,1.034l.336.5a8.875,8.875,0,0,1,1.424,3.956A.992.992,0,0,0,27,27v4a1,1,0,0,0,1,1h1.087l.818,9H21.716L22,36.057a1.012,1.012,0,0,0-.028-.3l-.885-3.542,1.539-2.081a7.028,7.028,0,0,0-1.436-9.8A2.988,2.988,0,0,1,20,17.956V13.942a1,1,0,0,0-1.6-.8l-4.143,3.106a10.645,10.645,0,0,0-2.172,14.843l.83,1.123-.885,3.542a1.009,1.009,0,0,0-.028.3L12.284,41H7V7H57Z"/><rect x="55" y="45" width="2" height="2"/><rect x="51" y="45" width="2" height="2"/></svg>
